<mxfile host="Electron" modified="2024-11-06T15:04:00.280Z" agent="Mozilla/5.0 (Windows NT 10.0; Win64; x64) AppleWebKit/537.36 (KHTML, like Gecko) draw.io/22.0.3 Chrome/114.0.5735.289 Electron/25.8.4 Safari/537.36" etag="N1TtjX6QIAk_TVkIJSYk" version="22.0.3" type="device">
  <diagram id="wFE0QG_FPsp0jaGvCLVb" name="Page-1">
    <mxGraphModel dx="941" dy="644" grid="1" gridSize="10" guides="1" tooltips="1" connect="1" arrows="1" fold="1" page="1" pageScale="1" pageWidth="850" pageHeight="1100" math="0" shadow="0">
      <root>
        <mxCell id="0" />
        <mxCell id="1" parent="0" />
        <mxCell id="0L0Ir-lksVrym1sluejJ-3" value="" style="html=1;whiteSpace=wrap;rounded=1;fillColor=#a1a1a1;sketch=1;curveFitting=1;jiggle=2;glass=1;shadow=1;fontFamily=Georgia;" parent="1" vertex="1">
          <mxGeometry x="20" y="10" width="930" height="660" as="geometry" />
        </mxCell>
        <mxCell id="0L0Ir-lksVrym1sluejJ-4" value="" style="html=1;whiteSpace=wrap;rounded=1;shadow=1;fillColor=#a1a1a1;opacity=40;fontFamily=Georgia;" parent="1" vertex="1">
          <mxGeometry x="30" y="50" width="730" height="70" as="geometry" />
        </mxCell>
        <mxCell id="0L0Ir-lksVrym1sluejJ-5" value="&lt;font&gt;&lt;b&gt;Presentation Layer&lt;/b&gt;&lt;/font&gt;" style="text;html=1;align=center;verticalAlign=middle;resizable=0;points=[];autosize=1;strokeColor=none;fillColor=none;fontFamily=Georgia;" parent="1" vertex="1">
          <mxGeometry x="33.75" y="70" width="140" height="30" as="geometry" />
        </mxCell>
        <mxCell id="0L0Ir-lksVrym1sluejJ-6" value="&lt;font&gt;Interface interaction component&lt;/font&gt;" style="shape=module;align=left;spacingLeft=20;align=center;verticalAlign=top;whiteSpace=wrap;html=1;fontFamily=Georgia;" parent="1" vertex="1">
          <mxGeometry x="192.5" y="60" width="100" height="50" as="geometry" />
        </mxCell>
        <mxCell id="0L0Ir-lksVrym1sluejJ-7" value="&lt;font&gt;Data encasulation&lt;br&gt;component&lt;br&gt;&lt;/font&gt;" style="shape=module;align=left;spacingLeft=20;align=center;verticalAlign=top;whiteSpace=wrap;html=1;fontFamily=Georgia;" parent="1" vertex="1">
          <mxGeometry x="325" y="60" width="100" height="50" as="geometry" />
        </mxCell>
        <mxCell id="0L0Ir-lksVrym1sluejJ-8" value="&lt;b&gt;&lt;font style=&quot;font-size: 15px;&quot;&gt;......&lt;/font&gt;&lt;/b&gt;" style="text;html=1;align=center;verticalAlign=middle;resizable=0;points=[];autosize=1;strokeColor=none;fillColor=none;fontFamily=Georgia;" parent="1" vertex="1">
          <mxGeometry x="450" y="70" width="50" height="30" as="geometry" />
        </mxCell>
        <mxCell id="0L0Ir-lksVrym1sluejJ-9" value="&lt;font&gt;User &lt;br&gt;feedback component&lt;/font&gt;" style="shape=module;align=left;spacingLeft=20;align=center;verticalAlign=top;whiteSpace=wrap;html=1;fontFamily=Georgia;" parent="1" vertex="1">
          <mxGeometry x="530" y="60" width="100" height="50" as="geometry" />
        </mxCell>
        <mxCell id="0L0Ir-lksVrym1sluejJ-10" value="&lt;font&gt;Data transmission&lt;br&gt;component&lt;br&gt;&lt;/font&gt;" style="shape=module;align=left;spacingLeft=20;align=center;verticalAlign=top;whiteSpace=wrap;html=1;fontFamily=Georgia;" parent="1" vertex="1">
          <mxGeometry x="650" y="60" width="100" height="50" as="geometry" />
        </mxCell>
        <mxCell id="0L0Ir-lksVrym1sluejJ-11" value="" style="html=1;whiteSpace=wrap;rounded=1;shadow=1;fillColor=#a1a1a1;opacity=50;fontFamily=Georgia;" parent="1" vertex="1">
          <mxGeometry x="780" y="50" width="130" height="600" as="geometry" />
        </mxCell>
        <mxCell id="0L0Ir-lksVrym1sluejJ-12" value="&lt;font&gt;&lt;b&gt;Common Service &lt;br&gt;Library&lt;/b&gt;&lt;/font&gt;" style="text;html=1;align=center;verticalAlign=middle;resizable=0;points=[];autosize=1;strokeColor=none;fillColor=none;fontFamily=Georgia;" parent="1" vertex="1">
          <mxGeometry x="780" y="65" width="130" height="40" as="geometry" />
        </mxCell>
        <mxCell id="0L0Ir-lksVrym1sluejJ-13" value="File storage Service&lt;br&gt;&lt;font&gt;Component&lt;br&gt;&lt;/font&gt;" style="shape=module;align=left;spacingLeft=20;align=center;verticalAlign=top;whiteSpace=wrap;html=1;fontFamily=Georgia;" parent="1" vertex="1">
          <mxGeometry x="795" y="120" width="100" height="60" as="geometry" />
        </mxCell>
        <mxCell id="0L0Ir-lksVrym1sluejJ-14" value="Monitoring Service&lt;br&gt;&lt;font&gt;Component&lt;br&gt;&lt;/font&gt;" style="shape=module;align=left;spacingLeft=20;align=center;verticalAlign=top;whiteSpace=wrap;html=1;fontFamily=Georgia;" parent="1" vertex="1">
          <mxGeometry x="795" y="210" width="100" height="60" as="geometry" />
        </mxCell>
        <mxCell id="0L0Ir-lksVrym1sluejJ-15" value="Cache&lt;br&gt;Service&lt;br&gt;&lt;font&gt;Component&lt;br&gt;&lt;/font&gt;" style="shape=module;align=left;spacingLeft=20;align=center;verticalAlign=top;whiteSpace=wrap;html=1;fontFamily=Georgia;" parent="1" vertex="1">
          <mxGeometry x="795" y="310" width="100" height="60" as="geometry" />
        </mxCell>
        <mxCell id="0L0Ir-lksVrym1sluejJ-16" value="Search Service&lt;br&gt;&lt;font&gt;component&lt;br&gt;&lt;/font&gt;" style="shape=module;align=left;spacingLeft=20;align=center;verticalAlign=top;whiteSpace=wrap;html=1;fontFamily=Georgia;" parent="1" vertex="1">
          <mxGeometry x="795" y="480" width="100" height="60" as="geometry" />
        </mxCell>
        <mxCell id="0L0Ir-lksVrym1sluejJ-17" value="Message Queue Service&lt;br&gt;&lt;font&gt;Component&lt;br&gt;&lt;/font&gt;" style="shape=module;align=left;spacingLeft=20;align=center;verticalAlign=top;whiteSpace=wrap;html=1;fontFamily=Georgia;" parent="1" vertex="1">
          <mxGeometry x="795" y="570" width="105" height="60" as="geometry" />
        </mxCell>
        <mxCell id="0L0Ir-lksVrym1sluejJ-18" value="" style="html=1;whiteSpace=wrap;rounded=1;shadow=1;fillColor=#a1a1a1;opacity=60;fontFamily=Georgia;" parent="1" vertex="1">
          <mxGeometry x="30" y="130" width="120" height="410" as="geometry" />
        </mxCell>
        <mxCell id="0L0Ir-lksVrym1sluejJ-19" value="&lt;font&gt;&lt;b&gt;DTO&lt;br&gt;Component&lt;br&gt;Library&lt;/b&gt;&lt;/font&gt;" style="text;html=1;align=center;verticalAlign=middle;resizable=0;points=[];autosize=1;strokeColor=none;fillColor=none;fontFamily=Georgia;" parent="1" vertex="1">
          <mxGeometry x="40" y="130" width="100" height="60" as="geometry" />
        </mxCell>
        <mxCell id="0L0Ir-lksVrym1sluejJ-20" value="" style="html=1;whiteSpace=wrap;rounded=1;shadow=1;fillColor=#a1a1a1;opacity=40;fontFamily=Georgia;" parent="1" vertex="1">
          <mxGeometry x="157.5" y="130" width="342.5" height="80" as="geometry" />
        </mxCell>
        <mxCell id="0L0Ir-lksVrym1sluejJ-21" value="" style="html=1;whiteSpace=wrap;rounded=1;shadow=1;fillColor=#a1a1a1;opacity=60;fontFamily=Georgia;" parent="1" vertex="1">
          <mxGeometry x="510" y="130" width="250" height="80" as="geometry" />
        </mxCell>
        <mxCell id="0L0Ir-lksVrym1sluejJ-22" value="&lt;font&gt;&lt;b&gt;Application Layer&lt;/b&gt;&lt;/font&gt;" style="text;html=1;align=center;verticalAlign=middle;resizable=0;points=[];autosize=1;strokeColor=none;fillColor=none;fontFamily=Georgia;" parent="1" vertex="1">
          <mxGeometry x="263.75" y="130" width="130" height="30" as="geometry" />
        </mxCell>
        <mxCell id="0L0Ir-lksVrym1sluejJ-23" value="&lt;font&gt;&lt;b&gt;External API Layer&lt;/b&gt;&lt;/font&gt;" style="text;html=1;align=center;verticalAlign=middle;resizable=0;points=[];autosize=1;strokeColor=none;fillColor=none;fontFamily=Georgia;" parent="1" vertex="1">
          <mxGeometry x="565" y="130" width="140" height="30" as="geometry" />
        </mxCell>
        <mxCell id="0L0Ir-lksVrym1sluejJ-24" value="" style="html=1;whiteSpace=wrap;rounded=1;shadow=1;fillColor=#a1a1a1;opacity=70;fontFamily=Georgia;" parent="1" vertex="1">
          <mxGeometry x="157.5" y="220" width="492.5" height="100" as="geometry" />
        </mxCell>
        <mxCell id="0L0Ir-lksVrym1sluejJ-25" value="" style="html=1;whiteSpace=wrap;rounded=1;shadow=1;fillColor=#a1a1a1;opacity=70;fontFamily=Georgia;" parent="1" vertex="1">
          <mxGeometry x="157.5" y="330" width="492.5" height="100" as="geometry" />
        </mxCell>
        <mxCell id="0L0Ir-lksVrym1sluejJ-26" value="" style="html=1;whiteSpace=wrap;rounded=1;shadow=1;fillColor=#a1a1a1;opacity=60;fontFamily=Georgia;" parent="1" vertex="1">
          <mxGeometry x="670" y="220" width="90" height="320" as="geometry" />
        </mxCell>
        <mxCell id="0L0Ir-lksVrym1sluejJ-27" value="" style="html=1;whiteSpace=wrap;rounded=1;shadow=1;fillColor=#a1a1a1;opacity=70;fontFamily=Georgia;" parent="1" vertex="1">
          <mxGeometry x="340" y="440" width="310" height="100" as="geometry" />
        </mxCell>
        <mxCell id="0L0Ir-lksVrym1sluejJ-28" value="" style="html=1;whiteSpace=wrap;rounded=1;shadow=1;fillColor=#a1a1a1;opacity=50;fontFamily=Georgia;" parent="1" vertex="1">
          <mxGeometry x="85" y="550" width="675" height="100" as="geometry" />
        </mxCell>
        <mxCell id="0L0Ir-lksVrym1sluejJ-29" value="" style="html=1;whiteSpace=wrap;rounded=1;shadow=1;fillColor=#a1a1a1;fontFamily=Georgia;" parent="1" vertex="1">
          <mxGeometry x="30" y="680" width="910" height="70" as="geometry" />
        </mxCell>
        <mxCell id="0L0Ir-lksVrym1sluejJ-30" value="&lt;font&gt;&lt;b&gt;Data&lt;br&gt;Access&lt;br&gt;Layer&lt;/b&gt;&lt;/font&gt;" style="text;html=1;align=center;verticalAlign=middle;resizable=0;points=[];autosize=1;strokeColor=none;fillColor=none;fontFamily=Georgia;" parent="1" vertex="1">
          <mxGeometry x="87.5" y="570" width="60" height="60" as="geometry" />
        </mxCell>
        <mxCell id="0L0Ir-lksVrym1sluejJ-31" value="&lt;b&gt;&lt;font&gt;General&lt;br&gt;Service&lt;br&gt;Layer&lt;/font&gt;&lt;/b&gt;" style="text;html=1;align=center;verticalAlign=middle;resizable=0;points=[];autosize=1;strokeColor=none;fillColor=none;fontFamily=Georgia;" parent="1" vertex="1">
          <mxGeometry x="340" y="460" width="70" height="60" as="geometry" />
        </mxCell>
        <mxCell id="0L0Ir-lksVrym1sluejJ-32" value="&lt;b&gt;&lt;font&gt;Business&lt;br&gt;Implementation Layer&lt;/font&gt;&lt;/b&gt;" style="text;html=1;align=center;verticalAlign=middle;resizable=0;points=[];autosize=1;strokeColor=none;fillColor=none;fontFamily=Georgia;" parent="1" vertex="1">
          <mxGeometry x="145" y="330" width="160" height="40" as="geometry" />
        </mxCell>
        <mxCell id="0L0Ir-lksVrym1sluejJ-33" value="&lt;b&gt;&lt;font&gt;Business&lt;br&gt;Interface Layer&lt;/font&gt;&lt;/b&gt;" style="text;html=1;align=center;verticalAlign=middle;resizable=0;points=[];autosize=1;strokeColor=none;fillColor=none;fontFamily=Georgia;" parent="1" vertex="1">
          <mxGeometry x="165" y="220" width="120" height="40" as="geometry" />
        </mxCell>
        <mxCell id="0L0Ir-lksVrym1sluejJ-34" value="&lt;b&gt;&lt;font&gt;Business&lt;br&gt;Entity Library&lt;/font&gt;&lt;/b&gt;" style="text;html=1;align=center;verticalAlign=middle;resizable=0;points=[];autosize=1;strokeColor=none;fillColor=none;fontFamily=Georgia;" parent="1" vertex="1">
          <mxGeometry x="660" y="220" width="110" height="40" as="geometry" />
        </mxCell>
        <mxCell id="0L0Ir-lksVrym1sluejJ-35" value="&lt;font&gt;Data&lt;br&gt;unpacking&lt;br&gt;component&lt;br&gt;&lt;/font&gt;" style="shape=module;align=left;spacingLeft=20;align=center;verticalAlign=top;whiteSpace=wrap;html=1;fontFamily=Georgia;" parent="1" vertex="1">
          <mxGeometry x="168.75" y="152.5" width="100" height="50" as="geometry" />
        </mxCell>
        <mxCell id="0L0Ir-lksVrym1sluejJ-36" value="&lt;font&gt;Data&lt;br&gt;encasulation&lt;br&gt;component&lt;br&gt;&lt;/font&gt;" style="shape=module;align=left;spacingLeft=20;align=center;verticalAlign=top;whiteSpace=wrap;html=1;fontFamily=Georgia;" parent="1" vertex="1">
          <mxGeometry x="278.75" y="155" width="100" height="50" as="geometry" />
        </mxCell>
        <mxCell id="0L0Ir-lksVrym1sluejJ-37" value="&lt;font&gt;Data&lt;br&gt;transmission&lt;br&gt;component&lt;br&gt;&lt;/font&gt;" style="shape=module;align=left;spacingLeft=20;align=center;verticalAlign=top;whiteSpace=wrap;html=1;fontFamily=Georgia;" parent="1" vertex="1">
          <mxGeometry x="390" y="155" width="100" height="50" as="geometry" />
        </mxCell>
        <mxCell id="0L0Ir-lksVrym1sluejJ-38" value="&lt;font&gt;Data&lt;br&gt;transmission&lt;br&gt;component&lt;br&gt;&lt;/font&gt;" style="shape=module;align=left;spacingLeft=20;align=center;verticalAlign=top;whiteSpace=wrap;html=1;fontFamily=Georgia;" parent="1" vertex="1">
          <mxGeometry x="520" y="155" width="100" height="50" as="geometry" />
        </mxCell>
        <mxCell id="0L0Ir-lksVrym1sluejJ-41" value="&lt;div&gt;&lt;br&gt;&lt;/div&gt;" style="shape=folder;fontStyle=1;spacingTop=10;tabWidth=40;tabHeight=14;tabPosition=left;html=1;whiteSpace=wrap;fontFamily=Georgia;" parent="1" vertex="1">
          <mxGeometry x="630" y="152.5" width="120" height="55" as="geometry" />
        </mxCell>
        <mxCell id="0L0Ir-lksVrym1sluejJ-42" value="&lt;div style=&quot;font-size: 11px;&quot;&gt;&lt;font style=&quot;font-size: 11px;&quot;&gt;QwenAPICall_&lt;br&gt;externalAPI(inputDTO): &lt;br&gt;outputDTO&lt;/font&gt;&lt;/div&gt;&lt;div style=&quot;font-size: 11px;&quot;&gt;&lt;br&gt;&lt;/div&gt;" style="text;html=1;align=center;verticalAlign=middle;resizable=0;points=[];autosize=1;strokeColor=none;fillColor=none;fontFamily=Georgia;" parent="1" vertex="1">
          <mxGeometry x="620" y="160" width="140" height="70" as="geometry" />
        </mxCell>
        <mxCell id="0L0Ir-lksVrym1sluejJ-43" value="&lt;font style=&quot;font-size: 8px;&quot;&gt;API&lt;/font&gt;" style="text;html=1;align=center;verticalAlign=middle;resizable=0;points=[];autosize=1;strokeColor=none;fillColor=none;fontFamily=Georgia;" parent="1" vertex="1">
          <mxGeometry x="630" y="145" width="40" height="30" as="geometry" />
        </mxCell>
        <mxCell id="0L0Ir-lksVrym1sluejJ-44" value="&lt;b&gt;&lt;font style=&quot;font-size: 20px;&quot;&gt;......&lt;/font&gt;&lt;/b&gt;" style="text;html=1;align=center;verticalAlign=middle;resizable=0;points=[];autosize=1;strokeColor=none;fillColor=none;fontFamily=Georgia;" parent="1" vertex="1">
          <mxGeometry x="815" y="410" width="60" height="40" as="geometry" />
        </mxCell>
        <mxCell id="0L0Ir-lksVrym1sluejJ-45" value="&lt;font&gt;cookbook&lt;br&gt;DTO&lt;br&gt;&lt;/font&gt;" style="shape=module;align=left;spacingLeft=20;align=center;verticalAlign=top;whiteSpace=wrap;html=1;fontFamily=Georgia;" parent="1" vertex="1">
          <mxGeometry x="38.75" y="200" width="100" height="40" as="geometry" />
        </mxCell>
        <mxCell id="0L0Ir-lksVrym1sluejJ-46" value="&lt;font&gt;fitness equipment&lt;br&gt;DTO&lt;br&gt;&lt;/font&gt;" style="shape=module;align=left;spacingLeft=20;align=center;verticalAlign=top;whiteSpace=wrap;html=1;fontFamily=Georgia;" parent="1" vertex="1">
          <mxGeometry x="38.75" y="270" width="100" height="50" as="geometry" />
        </mxCell>
        <mxCell id="0L0Ir-lksVrym1sluejJ-47" value="&lt;font&gt;fitness tutorial&lt;br&gt;DTO&lt;br&gt;&lt;/font&gt;" style="shape=module;align=left;spacingLeft=20;align=center;verticalAlign=top;whiteSpace=wrap;html=1;fontFamily=Georgia;" parent="1" vertex="1">
          <mxGeometry x="40" y="410" width="100" height="40" as="geometry" />
        </mxCell>
        <mxCell id="iE1TF2KJmge7Od6Kz5uu-1" value="&lt;font&gt;diet plan&lt;br&gt;DTO&lt;br&gt;&lt;/font&gt;" style="shape=module;align=left;spacingLeft=20;align=center;verticalAlign=top;whiteSpace=wrap;html=1;fontFamily=Georgia;" parent="1" vertex="1">
          <mxGeometry x="38.75" y="480" width="100" height="40" as="geometry" />
        </mxCell>
        <mxCell id="iE1TF2KJmge7Od6Kz5uu-2" value="&lt;b&gt;&lt;font style=&quot;font-size: 15px;&quot;&gt;......&lt;/font&gt;&lt;/b&gt;" style="text;html=1;align=center;verticalAlign=middle;resizable=0;points=[];autosize=1;strokeColor=none;fillColor=none;fontFamily=Georgia;" parent="1" vertex="1">
          <mxGeometry x="63.75" y="350" width="50" height="30" as="geometry" />
        </mxCell>
        <mxCell id="iE1TF2KJmge7Od6Kz5uu-3" value="&lt;font&gt;fitness &lt;br&gt;tutorial&lt;br&gt;&lt;br&gt;&lt;/font&gt;" style="shape=module;align=left;spacingLeft=20;align=center;verticalAlign=top;whiteSpace=wrap;html=1;fontFamily=Georgia;" parent="1" vertex="1">
          <mxGeometry x="675" y="490" width="80" height="40" as="geometry" />
        </mxCell>
        <mxCell id="iE1TF2KJmge7Od6Kz5uu-5" value="&lt;font&gt;diet&lt;br&gt;plan&lt;br&gt;&lt;/font&gt;" style="shape=module;align=left;spacingLeft=20;align=center;verticalAlign=top;whiteSpace=wrap;html=1;fontFamily=Georgia;" parent="1" vertex="1">
          <mxGeometry x="675" y="430" width="80" height="40" as="geometry" />
        </mxCell>
        <mxCell id="iE1TF2KJmge7Od6Kz5uu-6" value="&lt;font&gt;cook&lt;br&gt;book&lt;br&gt;&lt;/font&gt;" style="shape=module;align=left;spacingLeft=20;align=center;verticalAlign=top;whiteSpace=wrap;html=1;fontFamily=Georgia;" parent="1" vertex="1">
          <mxGeometry x="675" y="270" width="80" height="40" as="geometry" />
        </mxCell>
        <mxCell id="iE1TF2KJmge7Od6Kz5uu-7" value="&lt;font&gt;fitness&lt;br&gt;equipment&lt;br&gt;&lt;/font&gt;" style="shape=module;align=left;spacingLeft=20;align=center;verticalAlign=top;whiteSpace=wrap;html=1;fontFamily=Georgia;" parent="1" vertex="1">
          <mxGeometry x="675" y="330" width="80" height="40" as="geometry" />
        </mxCell>
        <mxCell id="iE1TF2KJmge7Od6Kz5uu-8" value="&lt;b&gt;&lt;font style=&quot;font-size: 17px;&quot;&gt;......&lt;/font&gt;&lt;/b&gt;" style="text;html=1;align=center;verticalAlign=middle;resizable=0;points=[];autosize=1;strokeColor=none;fillColor=none;fontFamily=Georgia;" parent="1" vertex="1">
          <mxGeometry x="685" y="380" width="60" height="30" as="geometry" />
        </mxCell>
        <mxCell id="iE1TF2KJmge7Od6Kz5uu-9" value="&lt;font&gt;Data&lt;br&gt;transmission&lt;br&gt;component&lt;br&gt;&lt;/font&gt;" style="shape=module;align=left;spacingLeft=20;align=center;verticalAlign=top;whiteSpace=wrap;html=1;fontFamily=Georgia;" parent="1" vertex="1">
          <mxGeometry x="410" y="465" width="100" height="55" as="geometry" />
        </mxCell>
        <mxCell id="iE1TF2KJmge7Od6Kz5uu-12" value="&lt;font&gt;&lt;b&gt;Data Source&lt;/b&gt;&lt;/font&gt;" style="text;html=1;align=center;verticalAlign=middle;resizable=0;points=[];autosize=1;strokeColor=none;fillColor=none;fontFamily=Georgia;" parent="1" vertex="1">
          <mxGeometry x="30" y="700" width="100" height="30" as="geometry" />
        </mxCell>
        <mxCell id="iE1TF2KJmge7Od6Kz5uu-13" value="Oracle" style="shape=datastore;whiteSpace=wrap;html=1;fontFamily=Georgia;" parent="1" vertex="1">
          <mxGeometry x="192.5" y="685" width="60" height="60" as="geometry" />
        </mxCell>
        <mxCell id="iE1TF2KJmge7Od6Kz5uu-14" value="MySQL" style="shape=datastore;whiteSpace=wrap;html=1;fontFamily=Georgia;" parent="1" vertex="1">
          <mxGeometry x="340" y="685" width="60" height="60" as="geometry" />
        </mxCell>
        <mxCell id="iE1TF2KJmge7Od6Kz5uu-15" value="MongoDB" style="shape=datastore;whiteSpace=wrap;html=1;fontFamily=Georgia;" parent="1" vertex="1">
          <mxGeometry x="480" y="685" width="60" height="60" as="geometry" />
        </mxCell>
        <mxCell id="iE1TF2KJmge7Od6Kz5uu-16" value="&lt;b&gt;&lt;font style=&quot;font-size: 15px;&quot;&gt;......&lt;/font&gt;&lt;/b&gt;" style="text;html=1;align=center;verticalAlign=middle;resizable=0;points=[];autosize=1;strokeColor=none;fillColor=none;fontFamily=Georgia;" parent="1" vertex="1">
          <mxGeometry x="570" y="700" width="50" height="30" as="geometry" />
        </mxCell>
        <mxCell id="iE1TF2KJmge7Od6Kz5uu-17" value="&lt;font&gt;Data&lt;br&gt;transmission&lt;br&gt;component&lt;br&gt;&lt;/font&gt;" style="shape=module;align=left;spacingLeft=20;align=center;verticalAlign=top;whiteSpace=wrap;html=1;fontFamily=Georgia;" parent="1" vertex="1">
          <mxGeometry x="168.75" y="370" width="100" height="50" as="geometry" />
        </mxCell>
        <mxCell id="iE1TF2KJmge7Od6Kz5uu-18" value="&lt;font&gt;Data&lt;br&gt;transmission&lt;br&gt;component&lt;br&gt;&lt;/font&gt;" style="shape=module;align=left;spacingLeft=20;align=center;verticalAlign=top;whiteSpace=wrap;html=1;fontFamily=Georgia;" parent="1" vertex="1">
          <mxGeometry x="168.75" y="260" width="100" height="50" as="geometry" />
        </mxCell>
        <mxCell id="iE1TF2KJmge7Od6Kz5uu-20" value="&lt;font&gt;Database&lt;br&gt;connection&lt;br&gt;component&lt;br&gt;&lt;/font&gt;" style="shape=module;align=left;spacingLeft=20;align=center;verticalAlign=top;whiteSpace=wrap;html=1;fontFamily=Georgia;" parent="1" vertex="1">
          <mxGeometry x="168.75" y="580" width="100" height="50" as="geometry" />
        </mxCell>
        <mxCell id="iE1TF2KJmge7Od6Kz5uu-21" value="&lt;font&gt;Database&lt;br&gt;operation&lt;br&gt;component&lt;br&gt;&lt;/font&gt;" style="shape=module;align=left;spacingLeft=20;align=center;verticalAlign=top;whiteSpace=wrap;html=1;fontFamily=Georgia;" parent="1" vertex="1">
          <mxGeometry x="292.5" y="580" width="100" height="50" as="geometry" />
        </mxCell>
        <mxCell id="iE1TF2KJmge7Od6Kz5uu-22" value="&lt;font&gt;Database&lt;br&gt;search&lt;br&gt;component&lt;br&gt;&lt;/font&gt;" style="shape=module;align=left;spacingLeft=20;align=center;verticalAlign=top;whiteSpace=wrap;html=1;fontFamily=Georgia;" parent="1" vertex="1">
          <mxGeometry x="425" y="580" width="100" height="50" as="geometry" />
        </mxCell>
        <mxCell id="iE1TF2KJmge7Od6Kz5uu-23" value="&lt;font&gt;Database&lt;br&gt;cache&lt;br&gt;component&lt;br&gt;&lt;/font&gt;" style="shape=module;align=left;spacingLeft=20;align=center;verticalAlign=top;whiteSpace=wrap;html=1;fontFamily=Georgia;" parent="1" vertex="1">
          <mxGeometry x="555" y="580" width="100" height="50" as="geometry" />
        </mxCell>
        <mxCell id="iE1TF2KJmge7Od6Kz5uu-24" value="&lt;b&gt;&lt;font style=&quot;font-size: 15px;&quot;&gt;......&lt;/font&gt;&lt;/b&gt;" style="text;html=1;align=center;verticalAlign=middle;resizable=0;points=[];autosize=1;strokeColor=none;fillColor=none;fontFamily=Georgia;" parent="1" vertex="1">
          <mxGeometry x="680" y="590" width="50" height="30" as="geometry" />
        </mxCell>
        <mxCell id="iE1TF2KJmge7Od6Kz5uu-25" value="&lt;font style=&quot;font-weight: normal; font-size: 10px;&quot;&gt;permission_service&lt;br&gt;(userID, action): state&lt;/font&gt;" style="shape=folder;fontStyle=1;spacingTop=10;tabWidth=70;tabHeight=15;tabPosition=left;html=1;whiteSpace=wrap;fontFamily=Georgia;" parent="1" vertex="1">
          <mxGeometry x="520" y="465" width="110" height="55" as="geometry" />
        </mxCell>
        <mxCell id="iE1TF2KJmge7Od6Kz5uu-27" value="&lt;font style=&quot;font-size: 9px;&quot;&gt;GeneralService&lt;/font&gt;" style="text;html=1;align=center;verticalAlign=middle;resizable=0;points=[];autosize=1;strokeColor=none;fillColor=none;fontFamily=Georgia;" parent="1" vertex="1">
          <mxGeometry x="516" y="458" width="80" height="30" as="geometry" />
        </mxCell>
        <mxCell id="iE1TF2KJmge7Od6Kz5uu-28" value="" style="shape=folder;fontStyle=1;spacingTop=10;tabWidth=96;tabHeight=20;tabPosition=left;html=1;whiteSpace=wrap;fontFamily=Georgia;" parent="1" vertex="1">
          <mxGeometry x="293.75" y="230" width="346.25" height="80" as="geometry" />
        </mxCell>
        <mxCell id="iE1TF2KJmge7Od6Kz5uu-29" value="&lt;font style=&quot;font-size: 9px;&quot;&gt;Business Interface&lt;/font&gt;" style="text;html=1;align=center;verticalAlign=middle;resizable=0;points=[];autosize=1;strokeColor=none;fillColor=none;fontFamily=Georgia;" parent="1" vertex="1">
          <mxGeometry x="290" y="225" width="100" height="30" as="geometry" />
        </mxCell>
        <mxCell id="iE1TF2KJmge7Od6Kz5uu-30" value="" style="shape=folder;fontStyle=1;spacingTop=10;tabWidth=116;tabHeight=20;tabPosition=left;html=1;whiteSpace=wrap;fontFamily=Georgia;" parent="1" vertex="1">
          <mxGeometry x="293.75" y="340" width="346.25" height="80" as="geometry" />
        </mxCell>
        <mxCell id="iE1TF2KJmge7Od6Kz5uu-31" value="&lt;font style=&quot;font-size: 9px;&quot;&gt;Business Implementation&lt;/font&gt;" style="text;html=1;align=center;verticalAlign=middle;resizable=0;points=[];autosize=1;strokeColor=none;fillColor=none;fontFamily=Georgia;" parent="1" vertex="1">
          <mxGeometry x="285" y="335" width="130" height="30" as="geometry" />
        </mxCell>
        <mxCell id="iE1TF2KJmge7Od6Kz5uu-32" value="&lt;font style=&quot;font-size: 12px; font-weight: normal;&quot;&gt;Healthy Diet&lt;br&gt;System&lt;/font&gt;" style="shape=folder;fontStyle=1;spacingTop=10;tabWidth=40;tabHeight=14;tabPosition=left;html=1;whiteSpace=wrap;fontFamily=Georgia;" parent="1" vertex="1">
          <mxGeometry x="305" y="255" width="75" height="50" as="geometry" />
        </mxCell>
        <mxCell id="iE1TF2KJmge7Od6Kz5uu-33" value="&lt;font style=&quot;font-weight: normal;&quot;&gt;Fitness Tutorial System&amp;nbsp;&lt;/font&gt;" style="shape=folder;fontStyle=1;spacingTop=10;tabWidth=40;tabHeight=14;tabPosition=left;html=1;whiteSpace=wrap;fontFamily=Georgia;" parent="1" vertex="1">
          <mxGeometry x="390" y="255" width="90" height="50" as="geometry" />
        </mxCell>
        <mxCell id="iE1TF2KJmge7Od6Kz5uu-34" value="&lt;font style=&quot;font-weight: normal;&quot;&gt;AI Fitness &lt;br&gt;Coaching System&amp;nbsp;&lt;/font&gt;" style="shape=folder;fontStyle=1;spacingTop=10;tabWidth=40;tabHeight=14;tabPosition=left;html=1;whiteSpace=wrap;fontFamily=Georgia;" parent="1" vertex="1">
          <mxGeometry x="527.5" y="255" width="105" height="50" as="geometry" />
        </mxCell>
        <mxCell id="iE1TF2KJmge7Od6Kz5uu-35" value="&lt;b&gt;&lt;font style=&quot;font-size: 15px;&quot;&gt;......&lt;/font&gt;&lt;/b&gt;" style="text;html=1;align=center;verticalAlign=middle;resizable=0;points=[];autosize=1;strokeColor=none;fillColor=none;fontFamily=Georgia;" parent="1" vertex="1">
          <mxGeometry x="475" y="265" width="50" height="30" as="geometry" />
        </mxCell>
        <mxCell id="iE1TF2KJmge7Od6Kz5uu-40" value="&lt;font style=&quot;font-size: 12px; font-weight: normal;&quot;&gt;Healthy Diet&lt;br&gt;System&lt;/font&gt;" style="shape=folder;fontStyle=1;spacingTop=10;tabWidth=40;tabHeight=14;tabPosition=left;html=1;whiteSpace=wrap;fontFamily=Georgia;" parent="1" vertex="1">
          <mxGeometry x="305" y="365" width="75" height="50" as="geometry" />
        </mxCell>
        <mxCell id="iE1TF2KJmge7Od6Kz5uu-41" value="&lt;font style=&quot;font-weight: normal;&quot;&gt;Fitness Tutorial System&amp;nbsp;&lt;/font&gt;" style="shape=folder;fontStyle=1;spacingTop=10;tabWidth=40;tabHeight=14;tabPosition=left;html=1;whiteSpace=wrap;fontFamily=Georgia;" parent="1" vertex="1">
          <mxGeometry x="390" y="365" width="90" height="50" as="geometry" />
        </mxCell>
        <mxCell id="iE1TF2KJmge7Od6Kz5uu-42" value="&lt;font style=&quot;font-weight: normal;&quot;&gt;AI Fitness &lt;br&gt;Coaching System&amp;nbsp;&lt;/font&gt;" style="shape=folder;fontStyle=1;spacingTop=10;tabWidth=40;tabHeight=14;tabPosition=left;html=1;whiteSpace=wrap;fontFamily=Georgia;" parent="1" vertex="1">
          <mxGeometry x="527.5" y="365" width="105" height="50" as="geometry" />
        </mxCell>
        <mxCell id="iE1TF2KJmge7Od6Kz5uu-43" value="&lt;b&gt;&lt;font style=&quot;font-size: 15px;&quot;&gt;......&lt;/font&gt;&lt;/b&gt;" style="text;html=1;align=center;verticalAlign=middle;resizable=0;points=[];autosize=1;strokeColor=none;fillColor=none;fontFamily=Georgia;" parent="1" vertex="1">
          <mxGeometry x="475" y="375" width="50" height="30" as="geometry" />
        </mxCell>
        <mxCell id="iE1TF2KJmge7Od6Kz5uu-44" value="&lt;font style=&quot;font-size: 16px;&quot;&gt;Keep Fit &quot;Intelligent Fitness Butler System Architecture&lt;/font&gt;" style="text;html=1;align=center;verticalAlign=middle;resizable=0;points=[];autosize=1;strokeColor=none;fillColor=none;fontFamily=Georgia;" parent="1" vertex="1">
          <mxGeometry x="256.87" y="10" width="420" height="30" as="geometry" />
        </mxCell>
      </root>
    </mxGraphModel>
  </diagram>
</mxfile>
